<svg xmlns:xlink="http://www.w3.org/1999/xlink" xmlns="http://www.w3.org/2000/svg" class="a-icon__asset" width="160"  height="30" ><defs><symbol viewBox="0 0 160 30" id="app-theme_logo" xmlns="http://www.w3.org/2000/svg"><path d="M15 6.912A8.087 8.087 0 006.912 15 8.088 8.088 0 1015 6.912zm0 12.72a4.632 4.632 0 110-9.262 4.632 4.632 0 01-.002 9.263z" fill="#1736D9"></path><path d="M15 6.912A8.087 8.087 0 006.912 15 8.088 8.088 0 1015 6.912zm0 12.72a4.632 4.632 0 110-9.262 4.632 4.632 0 01-.002 9.263z" fill="#1736D9"></path><path d="M15 6.912A8.087 8.087 0 006.912 15 8.088 8.088 0 1015 6.912zm0 12.72a4.632 4.632 0 110-9.262 4.632 4.632 0 01-.002 9.263z" fill="#1736D9"></path><path d="M15 0C6.715 0 0 6.716 0 15c0 8.284 6.716 15 15 15 8.283 0 15-6.716 15-15 0-8.284-6.715-15-15-15zm0 26.544C8.624 26.544 3.456 21.376 3.456 15S8.625 3.456 14.999 3.456c6.375 0 11.544 5.168 11.544 11.544S21.375 26.544 15 26.544zm25.001-3.457V6.915h3.098l.293 3.065a6.454 6.454 0 012.364-2.527c1.01-.62 2.234-.93 3.668-.93v3.62h-.945c-.957 0-1.81.158-2.56.472-.75.316-1.348.848-1.793 1.598-.446.75-.669 1.789-.669 3.114v7.76h-3.456zm18.031.392c-1.586 0-2.994-.354-4.222-1.06a7.528 7.528 0 01-2.886-2.95c-.696-1.261-1.043-2.729-1.043-4.403 0-1.695.342-3.184 1.027-4.467a7.476 7.476 0 012.87-3c1.227-.717 2.657-1.076 4.287-1.076 1.587 0 2.967.354 4.141 1.06a7.496 7.496 0 012.74 2.82c.651 1.174.977 2.468.977 3.88 0 .218-.005.452-.016.702-.011.25-.027.527-.049.831H53.272c.108 1.565.625 2.756 1.549 3.57.924.816 1.994 1.224 3.212 1.224.978 0 1.798-.223 2.461-.669a4.047 4.047 0 001.484-1.81h3.456c-.435 1.522-1.299 2.794-2.592 3.815-1.294 1.022-2.897 1.533-4.81 1.533zm0-14.119c-1.152 0-2.173.342-3.064 1.027-.892.685-1.435 1.712-1.63 3.082h9.13c-.066-1.26-.512-2.26-1.338-3-.826-.74-1.858-1.109-3.098-1.109zM70.08 4.5a2.25 2.25 0 100-4.5 2.25 2.25 0 000 4.5zM64.945 30v-2.934h1.272c.76 0 1.304-.159 1.63-.473.326-.316.489-.843.489-1.582V6.915h3.456v18.129c0 1.76-.446 3.027-1.337 3.799-.891.77-2.13 1.157-3.717 1.157h-1.793zm16.401-6.521c-2.044 0-3.729-.5-5.054-1.5-1.326-1-2.087-2.326-2.283-3.978h3.49c.173.74.586 1.375 1.238 1.908.652.532 1.51.798 2.576.798 1.044 0 1.804-.217 2.283-.652.477-.434.717-.934.717-1.5 0-.826-.332-1.386-.995-1.68-.663-.293-1.58-.558-2.755-.798a20.833 20.833 0 01-2.722-.782c-.903-.327-1.653-.788-2.25-1.386-.598-.598-.897-1.407-.897-2.43 0-1.412.543-2.592 1.63-3.537 1.087-.946 2.609-1.419 4.565-1.419 1.804 0 3.266.436 4.386 1.304 1.12.87 1.777 2.098 1.973 3.685h-3.326c-.11-.695-.43-1.239-.962-1.63-.533-.391-1.245-.587-2.136-.587-.87 0-1.544.18-2.022.538-.478.358-.717.82-.717 1.386 0 .565.331 1.01.995 1.337.662.326 1.537.62 2.624.88 1.087.24 2.092.517 3.017.831.923.316 1.668.778 2.233 1.386.565.609.848 1.5.848 2.674.021 1.478-.55 2.706-1.712 3.685-1.163.978-2.745 1.467-4.744 1.467zm16.335 0c-1.587 0-2.994-.354-4.222-1.06a7.53 7.53 0 01-2.886-2.95c-.696-1.261-1.043-2.729-1.043-4.403 0-1.695.342-3.184 1.027-4.467a7.477 7.477 0 012.87-3c1.227-.717 2.657-1.076 4.287-1.076 1.587 0 2.967.354 4.141 1.06a7.493 7.493 0 012.739 2.82c.652 1.174.978 2.468.978 3.88 0 .218-.005.452-.016.702-.011.25-.028.527-.049.831H92.921c.108 1.565.624 2.756 1.549 3.57.923.816 1.994 1.224 3.212 1.224.978 0 1.798-.223 2.461-.669a4.047 4.047 0 001.484-1.81h3.456c-.435 1.522-1.299 2.794-2.592 3.815-1.294 1.022-2.897 1.533-4.81 1.533zm0-14.119c-1.152 0-2.174.342-3.064 1.027-.892.685-1.435 1.712-1.63 3.082h9.129c-.065-1.26-.511-2.26-1.337-3-.826-.74-1.858-1.109-3.097-1.109zm10.246 13.728V0h3.457v13.6l6.195-6.685h4.141l-6.88 7.336 7.891 8.837h-4.37l-6.977-8.282v8.282h-3.457z" fill="#1736D9"></path><path d="M130.145 23.479c-1.543 0-2.929-.354-4.157-1.06-1.228-.706-2.201-1.695-2.918-2.967-.718-1.272-1.076-2.755-1.076-4.45 0-1.696.363-3.18 1.092-4.452a7.817 7.817 0 012.951-2.967c1.239-.706 2.619-1.06 4.141-1.06 1.543 0 2.929.354 4.157 1.06 1.228.707 2.206 1.696 2.935 2.967.728 1.272 1.092 2.756 1.092 4.451 0 1.696-.364 3.18-1.092 4.45-.729 1.273-1.712 2.262-2.951 2.968s-2.63 1.06-4.174 1.06zm0-2.968c.826 0 1.592-.206 2.299-.619.706-.413 1.277-1.027 1.712-1.842.435-.815.652-1.831.652-3.049s-.212-2.233-.636-3.049c-.424-.815-.989-1.429-1.695-1.842a4.48 4.48 0 00-2.299-.62c-.826 0-1.593.207-2.299.62-.706.413-1.277 1.027-1.712 1.842-.435.816-.652 1.832-.652 3.05 0 1.216.217 2.233.652 3.048.435.815 1 1.43 1.696 1.842.695.413 1.456.62 2.282.62zm10.617 2.576V6.915h3.098l.293 3.065a6.454 6.454 0 012.364-2.527c1.011-.62 2.234-.93 3.669-.93v3.62h-.946c-.957 0-1.81.158-2.56.472-.75.316-1.348.848-1.793 1.598-.446.75-.669 1.789-.669 3.114v7.76h-3.456zm16.534.001c-1.587 0-2.848-.386-3.783-1.158-.935-.771-1.402-2.146-1.402-4.125V2.806h3.457v4.109h4.402v2.902h-4.402v7.988c0 .892.19 1.506.57 1.843.38.337 1.038.505 1.973.505h1.859v2.935h-2.674z" fill="#1736D9"></path></symbol></defs>
                    <title fill="#007BC7">Sitecore.Globalization.Translate.Text("TravelCardLogo")</title>
                    <use xlink:href="#app-theme_logo" xmlns:xlink="http://www.w3.org/1999/xlink"></use>
                </svg>